<?xml version="1.0" encoding="utf-8"?>
<!-- Generator: Adobe Illustrator 28.3.0, SVG Export Plug-In . SVG Version: 6.00 Build 0)  -->
<svg version="1.1" id="Layer_1" xmlns="http://www.w3.org/2000/svg" xmlns:xlink="http://www.w3.org/1999/xlink" x="0px" y="0px"
	 viewBox="0 0 199 200" style="enable-background:new 0 0 199 200;" xml:space="preserve">
<style type="text/css">
	.st0{fill:#002676;}
</style>
<g>
	<g>
		<polygon class="st0" points="132.17,98.15 129.7,95.55 92.36,131.19 75.09,113.94 72.56,116.47 92.31,136.21 		"/>
	</g>
	<path class="st0" d="M166.96,49.99H141.1V38.65c0-0.97-0.78-1.75-1.75-1.75h-9.9c-0.97,0-1.75,0.78-1.75,1.75v11.34H71.3V38.65
		c0-0.97-0.78-1.75-1.75-1.75h-9.9c-0.97,0-1.75,0.78-1.75,1.75v11.34H32.04c-0.97,0-1.75,0.78-1.75,1.75v109.61
		c0,0.97,0.78,1.75,1.75,1.75h134.92c0.97,0,1.75-0.78,1.75-1.75V51.74C168.71,50.77,167.93,49.99,166.96,49.99z M131.2,40.4h6.4
		v22.68h-6.4V40.4z M61.4,40.4h6.4v22.68h-6.4V40.4z M57.9,53.49v11.34c0,0.97,0.78,1.75,1.75,1.75h9.9c0.97,0,1.75-0.78,1.75-1.75
		V53.49h56.4v11.34c0,0.97,0.78,1.75,1.75,1.75h9.9c0.97,0,1.75-0.78,1.75-1.75V53.49h24.11v21.16H33.79V53.49H57.9z M33.79,159.6
		V78.15h131.42v81.44H33.79z"/>
</g>
</svg>
