<?xml version="1.0" encoding="utf-8"?>
<!-- Generator: Adobe Illustrator 28.3.0, SVG Export Plug-In . SVG Version: 6.00 Build 0)  -->
<svg version="1.1" id="Layer_1" xmlns="http://www.w3.org/2000/svg" xmlns:xlink="http://www.w3.org/1999/xlink" x="0px" y="0px"
	 viewBox="0 0 199 200" style="enable-background:new 0 0 199 200;" xml:space="preserve">
<style type="text/css">
	.st0{fill:#FFFFFF;}
</style>
<g>
	<g>
		<g>
			<path class="st0" d="M163.37,161.1l-44.78-83.23V39.84h5.8c0.94,0,1.75-0.81,1.75-1.75c0-0.94-0.81-1.75-1.75-1.75h-7.55h-34.8
				h-7.55c-0.94,0-1.75,0.81-1.75,1.75c0,0.94,0.81,1.75,1.75,1.75h5.8v38.04L35.63,161.1c-0.27,0.54-0.27,1.21,0,1.75
				s0.81,0.81,1.48,0.81h124.77c0.54,0,1.21-0.27,1.48-0.81C163.64,162.18,163.64,161.64,163.37,161.1z M39.95,160.16l43.57-81.07
				c0.13-0.27,0.27-0.54,0.27-0.81V39.84h31.29v38.44c0,0.27,0.13,0.54,0.27,0.81l43.57,81.07H39.95z"/>
		</g>
		<g>
			<path class="st0" d="M81.63,102.97c-0.81-0.4-1.89-0.13-2.29,0.67L73.4,114.7l-14.16,26.3c-0.4,0.81-0.13,1.89,0.67,2.29
				c0.27,0.13,0.54,0.13,0.81,0.13c0.54,0,1.21-0.27,1.48-0.94l14.97-27.92l5.13-9.44C82.84,104.45,82.57,103.37,81.63,102.97z"/>
		</g>
		<g>
			<path class="st0" d="M57.75,146.54c-0.81-0.4-1.89-0.13-2.29,0.67l-3.51,6.47c-0.4,0.81-0.13,1.89,0.67,2.29
				c0.27,0.13,0.54,0.13,0.81,0.13c0.67,0,1.21-0.27,1.48-0.94l3.51-6.47C58.97,148.02,58.56,146.94,57.75,146.54z"/>
		</g>
		<g>
			<path class="st0" d="M124.39,153.69c6.34,0,11.47-5.13,11.47-11.47c0-6.34-5.13-11.47-11.47-11.47
				c-6.34,0-11.47,5.13-11.47,11.47C112.79,148.56,118.05,153.69,124.39,153.69z M124.39,133.99c4.45,0,8.09,3.64,8.09,8.09
				s-3.64,8.09-8.09,8.09c-4.45,0-8.09-3.64-8.09-8.09C116.29,137.63,119.94,133.99,124.39,133.99z"/>
		</g>
		<g>
			<path class="st0" d="M90.53,126.71c-5.4,0-9.71,4.32-9.71,9.71s4.32,9.71,9.71,9.71c5.4,0,9.71-4.32,9.71-9.71
				C100.24,131.02,95.93,126.71,90.53,126.71z M90.53,142.62c-3.51,0-6.34-2.83-6.34-6.34s2.83-6.34,6.34-6.34
				c3.51,0,6.34,2.83,6.34,6.34C96.87,139.79,94.04,142.62,90.53,142.62z"/>
		</g>
		<g>
			<path class="st0" d="M105.23,103.64c-4.18,0-7.55,3.37-7.55,7.55c0,1.21,0.27,2.43,0.81,3.37c1.21,2.43,3.78,4.18,6.74,4.18
				c2.97,0,5.53-1.75,6.74-4.18c0.54-1.08,0.81-2.16,0.81-3.37C112.92,107.15,109.41,103.64,105.23,103.64z M105.23,115.38
				c-0.81,0-1.62-0.27-2.29-0.81c-1.08-0.81-1.89-2.02-1.89-3.37c0-2.29,1.89-4.18,4.18-4.18c2.29,0,4.18,1.89,4.18,4.18
				c0,1.48-0.81,2.7-1.89,3.37C106.85,115.11,106.18,115.38,105.23,115.38z"/>
		</g>
	</g>
</g>
</svg>
