<?xml version="1.0" encoding="utf-8"?>
<!-- Generator: Adobe Illustrator 28.3.0, SVG Export Plug-In . SVG Version: 6.00 Build 0)  -->
<svg version="1.1" id="Layer_1" xmlns="http://www.w3.org/2000/svg" xmlns:xlink="http://www.w3.org/1999/xlink" x="0px" y="0px"
	 viewBox="0 0 199 200" style="enable-background:new 0 0 199 200;" xml:space="preserve">
<style type="text/css">
	.st0{fill:#FFFFFF;}
</style>
<g>
	<g>
		<path class="st0" d="M55.7,122.27c-0.52,0-1,0.27-1.27,0.7l-11.2,17.86l-10.45-17.83c-0.27-0.46-0.76-0.74-1.29-0.74H12.63V34.38
			h114.83v20.39h3V32.88c0-0.83-0.67-1.5-1.5-1.5H11.13c-0.83,0-1.5,0.67-1.5,1.5v90.89c0,0.83,0.67,1.5,1.5,1.5h19.5l11.27,19.22
			c0.27,0.45,0.75,0.73,1.27,0.74c0.01,0,0.02,0,0.02,0c0.52,0,1-0.27,1.27-0.7l12.07-19.26h12.01v-3H55.7z"/>
	</g>
	<g>
		<path class="st0" d="M187.87,54.77h-57.42h-3H70.04c-0.83,0-1.5,0.67-1.5,1.5v66v3v21.89c0,0.83,0.67,1.5,1.5,1.5h72.43
			l12.07,19.26c0.27,0.44,0.75,0.7,1.27,0.7c0.01,0,0.01,0,0.02,0c0.52-0.01,1.01-0.29,1.27-0.74l11.27-19.22h19.5
			c0.83,0,1.5-0.67,1.5-1.5V56.27C189.37,55.44,188.7,54.77,187.87,54.77z M186.37,145.66h-18.86c-0.53,0-1.02,0.28-1.29,0.74
			l-10.45,17.83l-11.2-17.86c-0.27-0.44-0.75-0.7-1.27-0.7H71.54V57.77h114.83V145.66z"/>
	</g>
</g>
</svg>
