<?xml version="1.0" encoding="utf-8"?>
<!-- Generator: Adobe Illustrator 28.3.0, SVG Export Plug-In . SVG Version: 6.00 Build 0)  -->
<svg version="1.1" id="Layer_1" xmlns="http://www.w3.org/2000/svg" xmlns:xlink="http://www.w3.org/1999/xlink" x="0px" y="0px"
	 viewBox="0 0 199 200" style="enable-background:new 0 0 199 200;" xml:space="preserve">
<style type="text/css">
	.st0{fill:#FFFFFF;}
</style>
<g>
	<path class="st0" d="M186.64,72.72l-86.15-49.84c-0.56-0.37-1.3-0.37-1.85,0L12.49,72.72c-0.56,0.37-0.93,0.93-0.93,1.48
		c0,0.56,0.37,1.3,0.74,1.67l18.71,12.41v57.8c-3.52,0.93-6.11,4.08-6.11,7.78c0,4.45,3.71,8.15,7.97,8.15
		c4.45,0,7.97-3.71,7.97-8.15c0-3.89-2.59-7.04-6.11-7.78V90.69l11.3,7.6v42.98c0,0.56,0.37,1.11,0.74,1.48l51.5,34.27
		c0.37,0.19,0.74,0.37,1.11,0.37s0.74-0.19,1.11-0.37l51.5-34.27c0.56-0.37,0.74-0.93,0.74-1.48V98.29l33.9-22.42
		c0.56-0.37,0.93-0.93,0.74-1.67C187.57,73.65,187.2,73.09,186.64,72.72z M37.32,154.05c0,2.41-2.04,4.45-4.26,4.45
		c-2.41,0-4.26-2.04-4.26-4.45s2.04-4.26,4.26-4.26C35.47,149.6,37.32,151.64,37.32,154.05z M149.22,140.34l-49.65,32.98
		l-49.93-33.37v-39.65l48.82,32.62c0.37,0.19,0.74,0.37,1.11,0.37s0.74-0.19,1.11-0.37l48.54-32.24V140.34z M99.57,129.23
		L36.21,87.17l55.76-32.24c0.93-0.56,1.11-1.67,0.74-2.59c-0.56-0.93-1.67-1.11-2.59-0.74L32.69,84.76L16.94,74.2l82.63-47.43
		l82.63,47.61L99.57,129.23z"/>
</g>
</svg>
