<?xml version="1.0" encoding="utf-8"?>
<!-- Generator: Adobe Illustrator 28.3.0, SVG Export Plug-In . SVG Version: 6.00 Build 0)  -->
<svg version="1.1" id="Layer_1" xmlns="http://www.w3.org/2000/svg" xmlns:xlink="http://www.w3.org/1999/xlink" x="0px" y="0px"
	 viewBox="0 0 199 200" style="enable-background:new 0 0 199 200;" xml:space="preserve">
<style type="text/css">
	.st0{fill:#002676;}
</style>
<g>
	<g>
		<g>
			<path class="st0" d="M99.5,67.39c-11.78,0-21.38,9.6-21.38,21.38s9.6,21.2,21.38,21.2s21.38-9.6,21.38-21.38
				S111.28,67.39,99.5,67.39z M99.5,106.34c-9.78,0-17.75-7.97-17.75-17.75s7.97-17.57,17.75-17.57s17.75,7.97,17.75,17.75
				S109.28,106.34,99.5,106.34z"/>
		</g>
		<g>
			<path class="st0" d="M99.5,31.16c-38.05,0-68.84,30.8-68.84,68.84s30.8,68.84,68.84,68.84s68.84-30.8,68.84-68.84
				S137.55,31.16,99.5,31.16z M63.45,154.35L63.45,154.35c0-20.47,16.49-37.86,36.05-37.86s35.87,17.39,35.87,37.86l0,0
				c-10.33,6.88-22.65,10.87-36.05,10.87S73.77,161.23,63.45,154.35z M138.99,151.81c-1.27-21.38-18.84-38.95-39.49-38.95
				S61.27,130.44,60.01,152c-15.58-11.96-25.73-30.8-25.73-52c0-36.05,29.17-65.22,65.22-65.22s65.22,29.17,65.22,65.22
				C164.72,121.2,154.57,140.04,138.99,151.81z"/>
		</g>
	</g>
</g>
</svg>
