<?xml version="1.0" encoding="utf-8"?>
<!-- Generator: Adobe Illustrator 28.3.0, SVG Export Plug-In . SVG Version: 6.00 Build 0)  -->
<svg version="1.1" id="Layer_1" xmlns="http://www.w3.org/2000/svg" xmlns:xlink="http://www.w3.org/1999/xlink" x="0px" y="0px"
	 viewBox="0 0 199 200" style="enable-background:new 0 0 199 200;" xml:space="preserve">
<style type="text/css">
	.st0{fill:#FFFFFF;}
</style>
<g>
	<path class="st0" d="M112.98,42.82c-24.77,0-44.92,20.13-44.92,44.88c0,10.66,3.84,20.99,10.83,29.14L41.73,154
		c-0.73,0.71-0.74,1.89-0.03,2.62c0.35,0.35,0.81,0.55,1.3,0.56c0.01,0,0.01,0,0.02,0c0.49,0,0.95-0.19,1.3-0.53l37.09-37.09
		c8.49,8.41,19.68,13.03,31.56,13.03c24.73,0,44.84-20.13,44.84-44.88S137.71,42.82,112.98,42.82z M112.98,46.51
		c22.69,0,41.15,18.48,41.15,41.19s-18.46,41.19-41.15,41.19c-22.74,0-41.23-18.48-41.23-41.19S90.25,46.51,112.98,46.51z"/>
</g>
</svg>
