<svg width="336" height="42" fill="none" xmlns="http://www.w3.org/2000/svg"><path d="M205.406 42c2.139 0 4.149-1.582 8.169-10.008 2.737-5.987 4.79-11.29 6.928-16.721.684-1.754 1.026-2.096 2.096-2.395.769-.214 1.069-.513 1.069-.984 0-.428-.257-.813-.898-.813-.941 0-2.053.129-3.336.129-1.326 0-2.309-.129-3.293-.129-.599 0-.898.343-.898.77 0 .47.299.77.983.984 1.882.513 2.053 1.326 1.326 3.55-1.155 3.507-2.438 6.885-4.405 11.376-1.668-4.149-3.079-7.87-4.49-12.06-.514-1.626-.342-2.31 1.667-2.866.77-.214 1.027-.47 1.027-.94 0-.471-.342-.814-.941-.814-1.283 0-2.609.129-4.362.129-1.882 0-3.25-.129-4.576-.129-.642 0-.941.385-.941.813 0 .513.256.77 1.026.984.984.256 1.283.598 1.882 2.138 2.352 5.86 4.448 11.034 7.185 18.048-1.839 3.378-3.208 4.148-5.047 4.49-1.496.257-2.48 1.198-2.48 2.395 0 .984.684 2.053 2.309 2.053Zm-13.343-29.21c2.737 0 3.978 2.48 3.978 3.464 0 .342-.171.6-.556.685-2.31.598-5.09 1.154-7.998 1.668.513-3.892 2.438-5.817 4.576-5.817Zm.3 19.245c3.72 0 6.286-1.839 7.826-3.678.684-.812.257-1.54-.428-1.54-.171 0-.342.086-.513.172-1.796 1.112-3.207 1.71-5.132 1.71-4.234 0-6.757-3.72-6.757-7.954v-.086c4.191-.598 8.297-1.411 12.531-2.395.556-.128.94-.556.812-1.197-.684-3.08-3.507-6.458-8.382-6.458-4.876 0-9.366 4.533-9.366 11.077 0 6.158 3.977 10.35 9.409 10.35Zm-19.972-.342c1.411 0 2.908-.128 4.618-.128 1.711 0 3.294.128 4.705.128.641 0 .941-.385.941-.813 0-.47-.3-.898-1.027-.983-1.924-.214-2.266-.428-2.266-1.326-.086-4.148-.086-8.04-.086-11.889 0-3.55 0-7.441.128-16.08 0-.556-.342-.685-.812-.556a42.982 42.982 0 0 1-6.116 1.069c-.727.043-1.026.385-1.026.812 0 .47.299.813 1.112.941 1.881.342 2.095.556 2.138 1.54.086 4.32.086 8.382.086 12.274 0 3.849 0 7.74-.086 11.89-.043.897-.299 1.068-2.224 1.325-.77.085-1.026.513-1.026.984 0 .427.299.812.941.812Zm-9.665-18.903c2.737 0 3.977 2.48 3.977 3.464 0 .342-.171.6-.556.685-2.31.598-5.089 1.154-7.997 1.668.513-3.892 2.437-5.817 4.576-5.817Zm.299 19.245c3.721 0 6.287-1.839 7.826-3.678.685-.812.257-1.54-.427-1.54-.171 0-.343.086-.514.172-1.796 1.112-3.207 1.71-5.132 1.71-4.234 0-6.757-3.72-6.757-7.954v-.086c4.191-.598 8.297-1.411 12.531-2.395.556-.128.941-.556.812-1.197-.684-3.08-3.506-6.458-8.382-6.458-4.875 0-9.366 4.533-9.366 11.077 0 6.158 3.978 10.35 9.409 10.35Zm-30.878-.342c1.411 0 2.823-.128 4.533-.128 1.711 0 3.165.128 4.577.128.641 0 .94-.385.94-.813 0-.47-.256-.812-1.026-.983-1.924-.3-2.138-.428-2.138-1.326-.043-1.368-.043-2.737-.043-4.063a63.008 63.008 0 0 0 2.78-1.881c1.796 2.694 3.635 5.474 5.431 8.04.556.812.856.983 1.754.983 1.283 0 2.865-.042 4.704 0 .641 0 .984-.384.984-.855 0-.428-.172-.813-1.07-.898-1.197-.128-1.839-.727-2.865-2.053-1.796-2.438-3.678-5.218-5.431-7.912 0-.042.042-.042.085-.085 3.293-2.866 5.474-5.047 7.099-7.185.214-.3.343-.556.343-.813 0-.513-.343-.855-1.027-.812-2.01.17-3.849.17-6.116.042-.898-.042-1.154.385-1.154.813 0 .385.299.813.898.941l.855.214c1.412.342 1.412 1.497-.342 3.336-1.882 2.01-4.319 3.934-6.971 5.602v-5.303c0-3.55 0-7.441.128-16.08 0-.556-.342-.685-.812-.556a42.983 42.983 0 0 1-6.116 1.069c-.727.043-1.026.385-1.026.812 0 .47.299.813 1.112.941 1.881.342 2.095.556 2.138 1.54.086 4.32.086 8.382.086 12.274 0 3.849 0 7.74-.086 11.89-.043.897-.214 1.026-2.138 1.325-.77.171-1.027.513-1.027.984 0 .427.3.812.941.812Zm-15.866 0c1.368 0 2.823-.128 4.49-.128 1.668 0 3.593.128 4.961.128.599 0 .899-.385.899-.813 0-.47-.257-.855-1.112-.983-2.181-.257-2.395-.47-2.438-1.369-.086-2.352-.086-4.447-.086-7.184V17.75c2.224-2.95 3.251-3.55 4.363-3.55 1.325 0 2.437 1.668 2.993 1.668.3 0 .471-.085.685-.513.427-.855.855-1.71 1.283-2.608.256-.556.128-.856-.385-1.198-1.027-.684-2.096-1.155-3.165-1.155-1.882 0-3.593 1.583-5.731 5.09 0-1.412.043-2.951.086-4.662 0-.556-.342-.684-.813-.556-2.224.599-4.319.94-6.116 1.07-.727.085-.983.384-.983.854 0 .471.256.813 1.069.941 1.882.342 2.096.556 2.138 1.497.086 2.139.086 4.405.086 6.715 0 2.737 0 4.832-.086 7.184-.042.899-.171 1.112-2.053 1.369-.769.171-1.026.513-1.026.984 0 .427.3.812.941.812ZM105.889 12.79c2.737 0 3.977 2.48 3.977 3.464 0 .342-.171.6-.556.685-2.309.598-5.089 1.154-7.997 1.668.513-3.892 2.438-5.817 4.576-5.817Zm.299 19.245c3.721 0 6.287-1.839 7.827-3.678.684-.812.256-1.54-.428-1.54-.171 0-.342.086-.513.172-1.796 1.112-3.208 1.71-5.132 1.71-4.234 0-6.757-3.72-6.757-7.954v-.086c4.191-.598 8.297-1.411 12.53-2.395.556-.128.941-.556.813-1.197-.684-3.08-3.507-6.458-8.382-6.458-4.876 0-9.366 4.533-9.366 11.077 0 6.158 3.977 10.35 9.408 10.35Zm-26.087-2.694c-1.283-.3-1.71-.727-1.753-2.267-.086-3.25-.086-5.773-.086-10.392v-.085c7.27-.172 11.077 1.453 11.077 6.757 0 3.122-2.224 6.244-6.715 6.244-1.154 0-1.881-.086-2.523-.257ZM78.348 5.52c0-.856.213-1.198.855-1.454.513-.171 1.283-.257 2.48-.257 3.55 0 5.731 1.925 5.731 5.688 0 2.096-.684 3.85-1.796 5.175-2.181-.385-4.662-.513-7.356-.385 0-3.379 0-5.816.086-8.767Zm4.96 26.43c7.1 0 11.334-4.149 11.334-8.981 0-3.806-2.31-6.244-6.116-7.57 2.138-1.283 3.977-3.635 3.977-6.458 0-4.576-3.806-7.399-10.478-7.399-2.865 0-3.55.257-6.244.257-2.78 0-4.49-.214-5.602-.214-.684 0-1.026.385-1.026.941 0 .47.256.856 1.154 1.027 2.31.342 2.866.812 2.866 1.967.043 3.635.085 6.372.085 11.162 0 4.79 0 7.613-.085 11.248-.043 1.24-.47 1.582-2.78 1.796-.898.128-1.155.556-1.155 1.026 0 .556.342.941 1.027.941 1.668 0 3.25-.085 5.516-.085 2.139 0 4.106.342 7.527.342Zm-34.768.256c3.635 0 7.014-1.026 10.221-3.122.898-.556 1.155-1.154 1.155-1.753 0-1.155.085-2.224.042-3.165-.042-.727-.384-1.154-.983-1.154-.47 0-.813.299-.984.94-1.112 3.721-4.448 5.731-8.681 5.731-6.245 0-10.949-5.175-10.949-13.001 0-7.912 4.448-13.087 11.034-13.087 4.277 0 6.843 1.583 8.254 4.919.3.684.556 1.026 1.112 1.026.599 0 .855-.428.898-1.112.043-.984.043-2.523.043-3.464 0-.642-.214-1.155-1.155-1.668-2.266-1.24-5.431-2.138-8.81-2.138-10.007 0-16.85 6.885-16.85 15.995 0 8.852 6.415 15.053 15.653 15.053Zm-32.502 0c7.398 0 12.274-4.576 12.274-12.659v-2.865c0-4.833 0-7.655.042-11.547.043-.898.47-1.283 2.823-1.497.813-.128 1.07-.556 1.07-1.026 0-.556-.343-.941-.985-.941-1.368 0-2.694.128-4.404.128-1.754 0-3.123-.128-4.534-.128-.641 0-.983.385-.983.94 0 .428.256.856 1.112.984 2.48.257 2.908.642 2.908 1.54.085 3.892.085 6.714.085 11.547v2.523c0 6.33-3.122 9.537-8.34 9.537-5.345 0-8.125-3.335-8.125-9.237v-2.823c0-4.833 0-7.655.086-11.547 0-.898.427-1.283 2.78-1.497.855-.128 1.111-.556 1.111-1.026 0-.556-.342-.941-1.026-.941-1.625 0-3.25.128-5.474.128S2.65 1.671.984 1.671c-.642 0-.984.385-.984.94 0 .471.257.899 1.112 1.027 2.352.214 2.78.599 2.78 1.497.085 3.892.085 6.714.085 11.547v3.379c0 7.997 4.62 12.145 12.06 12.145Zm221.547.619c-1.801 0-3.309.126-4.817.126-.586 0-.921-.335-.921-.796 0-.419.251-.796.963-.88 2.471-.209 2.932-.544 2.932-1.507.042-3.853.042-7.246.042-11.517 0-4.272 0-7.539-.042-11.392 0-.921-.586-1.34-3.016-1.717-.712-.126-.963-.46-.963-.88 0-.46.293-.795.88-.795.837 0 2.429.209 4.942.209 2.471 0 3.099-.293 5.695-.293 6.534 0 10.136 2.89 10.136 7.203 0 2.848-1.843 5.361-4.105 6.576 3.937 1.214 6.157 3.601 6.157 7.37 0 4.608-3.979 8.67-10.764 8.67-3.015 0-5.277-.377-7.119-.377Zm1.759-16.585c2.931-.125 5.486 0 7.706.377 1.717-1.382 2.638-3.35 2.638-5.57 0-3.727-2.555-5.654-6.575-5.654-1.298 0-2.136.084-2.764.251-.712.21-.963.587-.963 1.424-.042 2.974-.042 5.822-.042 9.172Zm5.151 14.952c4.774 0 7.162-2.932 7.162-6.492 0-5.235-4.23-6.784-12.313-6.575v.168c0 4.146 0 7.203.042 10.302.041 1.717.711 2.178 2.512 2.43.712.125 1.55.167 2.597.167Zm12.689 1.048c0-.419.251-.712.922-.838 1.926-.293 2.052-.46 2.094-1.466.083-2.261.083-4.23.083-6.994 0-2.261-.041-4.314-.083-6.407-.042-1.006-.21-1.173-2.346-1.55-.754-.126-.963-.46-.963-.838 0-.418.251-.67.88-.754 1.465-.083 3.308-.46 5.151-.963.461-.125.796.084.796.587-.042 1.717-.042 3.182-.042 4.439 2.261-3.476 3.937-4.858 5.779-4.858 1.005 0 1.885.251 2.806.837.377.293.461.587.294 1.005a18.365 18.365 0 0 1-1.215 2.388c-.084.21-.209.293-.419.293-.586 0-1.34-1.382-2.764-1.382-1.173 0-2.22.586-4.523 3.601v3.602c0 2.764 0 4.733.042 6.994.042 1.006.209 1.215 2.722 1.466.838.084 1.089.419 1.089.838 0 .377-.293.712-.838.712-1.214 0-3.266-.126-4.69-.126-1.424 0-2.765.126-3.937.126-.587 0-.838-.335-.838-.712Zm16.376-3.309c0-3.937 4.566-5.905 11.099-7.496 0-.922.042-1.885.084-2.89.083-2.639-1.257-3.937-3.183-3.937-2.597 0-4.607 1.34-4.607 2.764 0 .419.084.838.084 1.215 0 .837-.754 1.759-1.927 1.759-.963 0-1.801-.545-1.801-1.927 0-2.262 3.56-5.821 8.795-5.821 3.099 0 6.157 1.34 5.989 5.654a134.893 134.893 0 0 0-.084 7.999c.042 2.806.88 4.104 2.43 4.984.502.293.544.754 0 1.172-.461.294-1.047.712-1.508.964-.712.377-.922.335-1.382.042-1.005-.629-1.969-1.843-2.471-3.895-1.257 1.591-3.853 3.895-6.576 3.895-3.183 0-4.942-1.843-4.942-4.482Zm6.325 1.885c1.423 0 3.392-1.005 4.941-2.597a11.688 11.688 0 0 1-.125-1.759c-.042-1.089-.042-2.261-.042-3.392-4.691 1.13-7.664 2.722-7.664 5.193 0 1.717 1.172 2.555 2.89 2.555Zm12.27 1.424c0-.419.252-.754.922-.838 1.926-.293 2.052-.46 2.094-1.466.084-2.261.084-4.23.084-6.994 0-2.261-.042-4.314-.084-6.407-.042-1.006-.21-1.173-2.345-1.55-.754-.126-.964-.46-.964-.838 0-.418.252-.67.88-.754 1.466-.083 3.308-.46 5.151-.963.461-.125.796.084.796.587 0 1.088-.042 2.094-.042 3.015 1.968-2.094 4.314-3.476 6.701-3.476 3.225 0 5.57 2.178 5.486 6.24-.041 1.675-.041 2.848-.041 4.146 0 2.764 0 4.733.041 6.994.042 1.006.168 1.173 2.094 1.466.712.084.964.419.964.838 0 .377-.293.712-.838.712-1.214 0-2.555-.126-3.937-.126-1.424 0-2.722.126-3.895.126-.544 0-.837-.335-.837-.712 0-.419.251-.754.879-.838 1.927-.293 2.052-.46 2.094-1.466.042-2.261.042-4.23.042-6.994 0-1.256 0-2.387-.042-3.978-.042-2.178-.963-3.812-3.643-3.812-1.718 0-3.644 1.131-5.11 2.597v5.193c0 2.764 0 4.733.042 6.994.042 1.006.168 1.173 2.094 1.466.628.084.879.419.879.838 0 .377-.251.712-.837.712-1.173 0-2.471-.126-3.853-.126-1.424 0-2.764.126-3.937.126-.586 0-.838-.335-.838-.712Zm22.867-8.628c0-6.952 4.356-11.056 9.465-11.056 1.927 0 3.476.67 4.691 1.717 0-2.555-.042-5.32-.084-8.083 0-1.005-.209-1.215-2.345-1.592-.712-.125-.964-.419-.964-.837 0-.377.252-.67.922-.712 1.424-.126 3.308-.461 5.151-1.006.461-.125.796.084.796.587-.126 8.083-.126 12.187-.126 15.621 0 5.445 0 8 .084 10.89.042 1.005.209 1.172 2.345 1.591.754.168.964.419.964.838 0 .377-.252.67-.922.712-1.424.125-3.266.46-5.151 1.005-.419.125-.796-.084-.796-.587 0-1.005.042-1.968.042-2.848-1.843 2.388-3.895 3.477-6.115 3.477-4.648 0-7.957-4.272-7.957-9.717Zm9.172 7.12c1.885-.042 3.602-1.005 4.942-2.89.042-3.434.042-6.073.042-9.59v-1.55c-1.047-1.382-2.681-2.178-4.44-2.178-3.643 0-6.282 3.015-6.282 8.293 0 4.858 2.597 7.915 5.738 7.915Z" fill="#002676"/></svg>